<?xml version="1.0" standalone="no"?>
<!DOCTYPE svg PUBLIC "-//W3C//DTD SVG 20010904//EN"
 "http://www.w3.org/TR/2001/REC-SVG-20010904/DTD/svg10.dtd">
<svg version="1.0" xmlns="http://www.w3.org/2000/svg"
 width="32.000000pt" height="32.000000pt" viewBox="0 0 32.000000 32.000000"
 preserveAspectRatio="xMidYMid meet">

<g transform="translate(0.000000,32.000000) scale(0.100000,-0.100000)"
fill="#000000" stroke="none">
<path d="M122 258 c-7 -7 -12 -8 -12 -4 0 5 -7 3 -15 -4 -8 -7 -15 -21 -15
-32 0 -10 -7 -21 -15 -24 -21 -9 -19 -57 5 -104 l20 -40 75 0 c88 0 95 7 95
97 0 60 -17 108 -37 108 -6 0 -15 3 -19 8 -12 11 -69 8 -82 -5z m38 -23 c0
-18 -4 -23 -15 -19 -16 6 -20 26 -8 37 13 14 23 6 23 -18z m40 -16 c0 -19 -5
-29 -15 -29 -15 0 -22 50 -9 63 12 12 24 -4 24 -34z m-80 6 c0 -8 -4 -15 -10
-15 -5 0 -10 7 -10 15 0 8 5 15 10 15 6 0 10 -7 10 -15z m118 -17 c-2 -18 -7
-33 -13 -33 -5 0 -11 15 -13 33 -3 24 1 32 13 32 12 0 16 -8 13 -32z m-88 -13
c0 -8 -9 -19 -20 -25 -22 -12 -26 -35 -8 -46 7 -5 9 -2 5 9 -10 27 19 9 32
-20 6 -14 15 -23 18 -19 4 3 -3 19 -15 35 -17 24 -19 31 -8 40 10 8 21 8 42 1
15 -6 33 -9 41 -6 17 7 18 -75 1 -92 -7 -7 -39 -12 -75 -12 l-63 0 -20 41
c-28 55 -23 79 20 95 46 17 50 17 50 -1z"/>
</g>
</svg>
