<svg xmlns="http://www.w3.org/2000/svg" viewBox="0 0 96 96"><g id="icon"><path d="M52.37,33.37a.76.76,0,0,1-.75-.75V18.44H44.38v14a.75.75,0,0,1-1.5,0V17.69a.76.76,0,0,1,.75-.75h8.74a.76.76,0,0,1,.75.75V32.62A.76.76,0,0,1,52.37,33.37Z"/><path d="M57.81,18.45H38.2a2,2,0,0,1-1.82-1.16,2,2,0,0,1,.25-2.14L46.43,3A2,2,0,0,1,48,2.25h0A2,2,0,0,1,49.58,3l9.81,12.15a2,2,0,0,1-1.58,3.3ZM48,3.75a.51.51,0,0,0-.41.2L37.79,16.09a.54.54,0,0,0-.06.56.5.5,0,0,0,.47.3H57.81a.53.53,0,0,0,.41-.86L48.41,4a.51.51,0,0,0-.4-.2Z"/><path d="M54.09,33.91a.72.72,0,0,1-.4-.12.75.75,0,0,1-.24-1,26,26,0,0,1,19.27-12,.76.76,0,0,1,.83.66.74.74,0,0,1-.65.83A24.48,24.48,0,0,0,54.72,33.56.75.75,0,0,1,54.09,33.91Z"/><path d="M61.58,38.84a.8.8,0,0,1-.36-.09.75.75,0,0,1-.29-1c2.41-4.36,6-6.79,11.74-7.87A.75.75,0,1,1,73,31.33c-5.3,1-8.5,3.14-10.71,7.12A.75.75,0,0,1,61.58,38.84Z"/><path d="M34.45,39.13a.74.74,0,0,1-.66-.39c-2.27-4.09-5.68-6.45-10.74-7.41a.75.75,0,1,1,.28-1.47C28.87,30.91,32.61,33.5,35.1,38a.74.74,0,0,1-.29,1A.7.7,0,0,1,34.45,39.13Z"/><path d="M41.7,33.56a.74.74,0,0,1-.64-.35c-3.89-6.21-10.1-10-18-11a.74.74,0,0,1-.65-.83.76.76,0,0,1,.83-.66c8.32,1,14.91,5.05,19,11.66a.76.76,0,0,1-.24,1A.7.7,0,0,1,41.7,33.56Z"/><path d="M57.81,18.45H38.2a2,2,0,0,1-1.82-1.16,2,2,0,0,1,.25-2.14L46.43,3A2,2,0,0,1,48,2.25h0A2,2,0,0,1,49.58,3l9.81,12.15a2,2,0,0,1-1.58,3.3ZM48,3.75a.51.51,0,0,0-.41.2L37.79,16.09a.54.54,0,0,0-.06.56.5.5,0,0,0,.47.3H57.81a.53.53,0,0,0,.41-.86L48.41,4a.51.51,0,0,0-.4-.2Z"/><path d="M74.09,37.73a2,2,0,0,1-.88-.2,2,2,0,0,1-1.15-1.82V16.1a2,2,0,0,1,3.29-1.58L87.5,24.33a2,2,0,0,1,0,3.15l-12.15,9.8A2,2,0,0,1,74.09,37.73Zm0-22.16a.42.42,0,0,0-.23.06.5.5,0,0,0-.3.47V35.71a.5.5,0,0,0,.3.47.52.52,0,0,0,.55-.06l12.15-9.81a.51.51,0,0,0,.19-.41.52.52,0,0,0-.19-.41l-12.15-9.8A.49.49,0,0,0,74.09,15.57Z"/><path d="M21.91,37.73a2,2,0,0,1-1.26-.45L8.5,27.48a2,2,0,0,1,0-3.15l12.15-9.81a2,2,0,0,1,3.29,1.58V35.71a2,2,0,0,1-1.15,1.82A2,2,0,0,1,21.91,37.73Zm0-22.16a.49.49,0,0,0-.32.12L9.44,25.49a.52.52,0,0,0-.19.41.51.51,0,0,0,.19.41l12.15,9.81a.52.52,0,0,0,.55.06.5.5,0,0,0,.3-.47V16.1a.5.5,0,0,0-.3-.47A.42.42,0,0,0,21.91,15.57Z"/><path d="M47.81,74a12.79,12.79,0,0,1-5.21-1.07,17.75,17.75,0,0,1-6.17-4.54A6.74,6.74,0,0,1,34.69,65c-.13-.77-.21-1.34-.24-1.78l-.11,0A3.27,3.27,0,0,1,32.63,61c-.77-2.22-1.65-5.35-.31-6.85a2.59,2.59,0,0,1,2.2-.77,9.68,9.68,0,0,1,2.36-6,9.06,9.06,0,0,1,6.86-2.63c4.72.33,10.33.47,12.43-1.44a.74.74,0,0,1,1,0,14.42,14.42,0,0,1,4.22,10.1,3.08,3.08,0,0,1,2.17.82c.78.8,1,2.07.55,3.77L64,58.4c-.35,1.88-.75,4-2,4.71a1.9,1.9,0,0,1-.38.17v.44a6.38,6.38,0,0,1-1.29,3.62A15.66,15.66,0,0,1,47.81,74ZM35.93,62.83a12.52,12.52,0,0,0,.23,1.87v.1a5.24,5.24,0,0,0,1.4,2.61,16.17,16.17,0,0,0,5.63,4.13c5.36,2.38,12.21.19,15.94-5.07a4.92,4.92,0,0,0,1-2.75,5.66,5.66,0,0,0,0-.75.72.72,0,0,1-.11-.72.75.75,0,0,1,1-.45h0c.21.08.29,0,.33,0,.64-.36,1-2.44,1.27-3.69l.07-.38c.21-.83.34-1.89-.15-2.4A2.06,2.06,0,0,0,60.8,55a.77.77,0,0,1-.91-.75,13.64,13.64,0,0,0-3.29-9.34c-2.73,1.82-8,1.73-12.91,1.38A7.63,7.63,0,0,0,38,48.47a8.59,8.59,0,0,0-2,5.77.76.76,0,0,1-.27.61.7.7,0,0,1-.65.16c-.57-.13-1.31-.2-1.65.17s-.71,1.58.61,5.35c.39,1.13.76,1.32.88,1.3a.75.75,0,0,1,1,1Zm24.52.38Zm0,0Z"/><path d="M62.41,55.16h-.09a.74.74,0,0,1-.65-.83c.18-1.51,1.72-4,2.2-4.68.3-11.37-5.07-12.66-5.3-12.71a.79.79,0,0,1-.38-.21c-6.46-6.62-17.81-3-21.34-1.66l.48.44a.74.74,0,0,1,0,1.15C31.64,40.9,31.91,48.12,32,49.49A12.92,12.92,0,0,1,34,54.26a.75.75,0,0,1-.59.88.74.74,0,0,1-.88-.58c-.18-.88-.84-3.34-1.72-4.22a.8.8,0,0,1-.22-.44c0-.36-1-8.63,5.13-13.88L35,35.38a.74.74,0,0,1-.24-.67.76.76,0,0,1,.43-.57c.63-.29,15.52-7,24,1.38,1.24.38,6.63,2.68,6.24,14.38a.73.73,0,0,1-.13.4,14.59,14.59,0,0,0-2.08,4.2A.75.75,0,0,1,62.41,55.16Z"/><path d="M40.73,87.37l-.19,0a.75.75,0,0,1-.49-.41l-5.4-11.62a.76.76,0,0,1,.31-1l2.76-1.53V69.38a.75.75,0,0,1,1.5,0v3.53l9.2,8a.72.72,0,0,1,.25.6.75.75,0,0,1-.31.58l-7.19,5.16A.77.77,0,0,1,40.73,87.37ZM36.3,75.32,41,85.48l5.69-4.08-8.35-7.24Z"/><path d="M55.12,87.37a.77.77,0,0,1-.44-.14l-7.19-5.16a.76.76,0,0,1-.06-1.18l9.2-8V69.52a.75.75,0,0,1,1.5,0v3.29l2.76,1.53a.77.77,0,0,1,.32,1L55.8,86.94a.75.75,0,0,1-.49.41Zm-6-6,5.69,4.08,4.73-10.16-2.07-1.16Z"/><path d="M17.55,93.75A.75.75,0,0,1,16.8,93V84.08c0-2.63,2-4.9,5-5.65l13.69-3.5a.75.75,0,0,1,.91.54.76.76,0,0,1-.54.92L22.13,79.88c-2.3.58-3.83,2.27-3.83,4.2V93A.76.76,0,0,1,17.55,93.75Z"/><path d="M78.3,93.75a.76.76,0,0,1-.75-.75V84.08c0-1.93-1.53-3.62-3.83-4.2L60,76.39a.76.76,0,0,1-.54-.92.75.75,0,0,1,.91-.54l13.69,3.5c3,.75,5,3,5,5.65V93A.75.75,0,0,1,78.3,93.75Z"/></g></svg>